  0
SECTION
  2
HEADER
  9
$INSUNITS
 70
     4
  0
ENDSEC
  0
SECTION
  2
ENTITIES
  0
LWPOLYLINE
  8
WALL
 90
     4
 70
     1
 10
0.0
 20
0.0
 10
18000.0
 20
0.0
 10
18000.0
 20
10000.0
 10
0.0
 20
10000.0
  0
LINE
  8
WALL
 10
9000.0
 20
0.0
 11
9000.0
 21
10000.0
  0
LWPOLYLINE
  8
POOL
 90
     4
 70
     1
 10
20000.0
 20
0.0
 10
25000.0
 20
0.0
 10
25000.0
 20
6000.0
 10
20000.0
 20
6000.0
  0
TEXT
  8
TITLE
 10
400.0
 20
10800.0
 40
350.0
  1
Proposed additions and alterations to existing dwelling
  0
TEXT
  8
TITLE
 10
400.0
 20
10200.0
 40
250.0
  1
69 Marine Drive House Khan
  0
TEXT
  8
TITLE
 10
400.0
 20
9700.0
 40
200.0
  1
Erf 672 Bluff, Durban
  0
TEXT
  8
TITLE
 10
400.0
 20
9200.0
 40
200.0
  1
Occupancy H4 dwelling
  0
TEXT
  8
NOTES
 10
400.0
 20
2000.0
 40
180.0
  1
Site area 3667 m2
  0
TEXT
  8
NOTES
 10
400.0
 20
1600.0
 40
180.0
  1
Coverage under limit
  0
TEXT
  8
NOTES
 10
400.0
 20
1200.0
 40
180.0
  1
Parking 6 / 6
  0
TEXT
  8
NOTES
 10
400.0
 20
800.0
 40
180.0
  1
Stairs 170mm riser 250mm going Part M
  0
TEXT
  8
NOTES
 10
9500.0
 20
2000.0
 40
180.0
  1
Soakpit stormwater Part R
  0
TEXT
  8
NOTES
 10
9500.0
 20
1600.0
 40
180.0
  1
Lighting under 5 W/m2
  0
TEXT
  8
XA
 10
9500.0
 20
1200.0
 40
180.0
  1
XA not required
  0
TEXT
  8
XA
 10
9500.0
 20
800.0
 40
180.0
  1
Fenestration L/G 16.9% Ground 17.1%
  0
TEXT
  8
XA
 10
9500.0
 20
400.0
 40
180.0
  1
L/G nett floor 371 m2
  0
TEXT
  8
XA
 10
9500.0
 20
100.0
 40
180.0
  1
Ground nett floor 367 m2
  0
TEXT
  8
WIN_SCHED
 10
400.0
 20
400.0
 40
180.0
  1
Window schedule W1-W19 unit sizes drawn
  0
TEXT
  8
POOL
 10
20200.0
 20
2800.0
 40
220.0
  1
Swimming pool
  0
TEXT
  8
TITLE
 10
20200.0
 20
800.0
 40
180.0
  1
Owner signature Blank
  0
TEXT
  8
NOTES
 10
20200.0
 20
400.0
 40
180.0
  1
Engineering packs to attach
  0
ENDSEC
  0
EOF
