0
SECTION
2
TABLES
0
LTYPE
2
HIDDEN
49
4.0
49
-2.0
0
LTYPE
2
CENTER
49
5.0
49
-1.5
49
1.0
49
-1.5
0
LAYER
2
WALL
62
7
0
LAYER
2
BEAM
6
HIDDEN
62
1
0
LAYER
2
SLAB
62
3
0
LAYER
2
AXIS
6
CENTER
62
5
0
ENDSEC
0
SECTION
2
ENTITIES
0
LWPOLYLINE
8
WALL
90
4
70
1
10
0.0
20
0.0
10
80.0
20
0.0
10
80.0
20
50.0
10
0.0
20
50.0
0
LINE
8
BEAM
6
HIDDEN
10
30.0
20
0.0
11
30.0
21
50.0
0
LINE
8
AXIS
6
CENTER
10
0.0
20
25.0
11
80.0
21
25.0
0
HATCH
8
SLAB
2
ANSI31
52
45.0
70
0
91
1
92
7
72
0
73
1
93
4
10
4.0
20
4.0
10
26.0
20
4.0
10
26.0
20
20.0
10
4.0
20
20.0
0
LEADER
8
NOTE
10
15.0
20
12.0
10
40.0
20
38.0
10
58.0
20
38.0
0
TEXT
8
NOTE
10
60.0
20
36.0
40
3.0
1
Hidden beam
0
ENDSEC
0
EOF
